<svg width="88" height="61" viewBox="0 0 88 61" fill="none" xmlns="http://www.w3.org/2000/svg">
<g clip-path="url(#clip0_24_495)">
<path d="M87.3539 9.30605C85.2449 7.23804 84.1142 4.5218 84.2167 1.87512L77.2497 6.32419L76.7558 5.52102L85.4002 0L85.2355 1.03401C84.8131 3.67752 85.8474 6.51392 88 8.62304L87.3539 9.30605Z" fill="#0011FF"/>
<path d="M21.4324 61.0001C18.2423 61.0001 15.422 60.1337 13.229 58.442C3.95722 51.2798 0 41.3319 0 25.1767H0.931841C0.931841 41.2117 4.65921 50.6284 13.7944 57.6831C16.8135 60.0135 21.1652 60.6491 26.045 59.4697C29.4835 58.638 32.8629 56.9937 35.733 54.8783C29.6791 53.7684 23.8489 50.268 19.665 45.2118C15.2045 39.8172 13.1017 33.3792 13.7478 27.0771C14.3379 21.319 17.9131 14.4288 24.3677 12.9078C28.592 11.9117 33.5587 13.4865 37.6526 17.1229C45.7814 24.3388 48.2508 37.3919 43.3959 47.4853C42.2342 49.898 40.3518 52.219 38.0253 54.2396C49.4777 55.3558 61.632 49.1106 68.7171 38.3152C75.5817 27.855 79.3401 18.7925 84.1919 1.01831L85.0895 1.27128C80.2098 19.1561 76.4203 28.2851 69.4936 38.8401C62.7813 49.0695 51.6178 55.3147 40.6718 55.3147C39.448 55.3147 38.2272 55.2356 37.0127 55.0775C33.888 57.5408 30.1047 59.4633 26.2593 60.393C24.5851 60.7977 22.9668 60.9969 21.4324 60.9969V61.0001ZM26.952 13.5623C26.1413 13.5623 25.3461 13.6509 24.5789 13.8311C18.5685 15.2477 15.2325 21.7427 14.6765 27.1752C13.4216 39.4156 23.5632 51.9628 36.3791 54.0277C36.5064 54.0467 36.6307 54.0656 36.758 54.0846C39.2926 52.0261 41.3458 49.5976 42.5634 47.0679C47.2381 37.3476 44.8651 24.7815 37.0438 17.8375C33.9283 15.0707 30.3004 13.5623 26.9551 13.5623H26.952Z" fill="#0011FF"/>
</g>
<defs>
<clipPath id="clip0_24_495">
<rect width="88" height="61" fill="white"/>
</clipPath>
</defs>
</svg>
