<svg width="146" height="146" viewBox="0 0 146 146" fill="none" xmlns="http://www.w3.org/2000/svg">
<path d="M69.1393 89.6095C73.2073 90.2044 76.2174 94.9771 76.5886 98.5628C77.3484 105.902 73.5843 110.881 65.7814 111.925C65.8077 112.936 66.5062 113.69 66.8013 114.671C68.6688 120.887 64.2296 129.688 56.8154 129.989C51.3972 130.209 43.7521 126.722 42.6884 121.281C28.76 133.921 15.3052 115.883 28.3714 105.31C10.7929 97.8991 27.8775 74.0109 42.2558 84.0933C44.3921 79.9595 49.6613 76.6658 54.53 76.3959C62.257 75.9662 66.1379 83.5535 64.025 89.8849C64.3465 89.9924 64.668 89.6095 64.7527 89.6095C66.0415 89.6095 67.9645 89.4388 69.1364 89.6095H69.1393ZM59.0744 93.7213C58.4812 92.9254 60.0271 92.0413 60.3428 91.5126C62.894 87.2659 61.5819 79.0728 55.1145 79.4225C54.0215 79.4803 50.0149 80.6838 49.1791 81.1603C48.9307 81.3035 46.1076 83.9914 45.941 84.2778C45.225 85.4896 45.3536 86.9988 45.2718 88.3289L43.6557 89.2901C41.1599 87.6652 39.7776 85.0352 36.373 84.6854C28.95 83.9198 20.6006 94.2969 26.7173 99.9784C28.1726 101.331 33.5996 102.826 33.5558 104.858C33.5295 105.966 31.7555 105.908 31.0191 106.293C29.0932 107.301 26.8371 111.669 26.6179 113.713C25.9691 119.78 30.9168 124.486 37.1094 121.121C38.1615 120.551 39.4854 119.171 40.5433 118.573C41.2943 118.149 43.0274 117.75 43.2816 117.565C43.755 117.224 43.1735 116.359 44.2957 116.593C45.4179 116.827 44.9123 117.918 45.1549 118.816C46.4524 123.619 52.7561 127.367 57.8908 126.108C61.4094 125.246 63.8584 119.628 63.4405 116.453C63.0606 113.556 59.7729 112.994 59.6238 109.562C59.4923 106.558 62.7801 108.18 64.4546 108.337C72.5965 109.113 75.7966 101.617 72.5468 95.4783C70.4865 91.5869 67.0351 91.8788 63.2067 92.8345C62.4148 93.0328 59.6268 94.4648 59.0715 93.7185L59.0744 93.7213Z" fill="#0011FF"/>
<path d="M46.0959 19.1979C47.9224 21.503 47.9546 24.907 47.1567 27.5839C46.8411 28.6414 46.3297 29.418 45.9089 30.3957C64.2851 29.8449 63.3441 51.9705 45.3244 51.0562C49.1645 63.4712 32.0098 71.4936 26.3256 58.4892C16.2959 67.7509 0.871272 55.7325 10.8338 45.1241L14.3466 42.1057C6.61677 38.4456 4.03042 29.2968 11.281 23.7944C16.6319 19.735 22.4593 20.988 26.9043 25.4385C27.8278 17.675 40.5871 12.2524 46.093 19.1952L46.0959 19.1979ZM39.1843 33.9759C39.7601 31.8966 41.3674 31.4367 42.6971 29.9909C47.4402 24.8354 44.322 17.1517 36.5366 18.6774C32.8076 19.4072 29.2042 23.9734 29.2276 27.5067C29.2335 28.2145 30.2797 30.5086 29.3884 30.6766C28.6957 30.806 24.6628 26.7742 23.6779 26.149C14.3466 20.2169 4.44248 33.684 15.9422 38.6687C17.1346 39.1865 21.5007 39.941 21.2845 41.5053C21.0507 43.2018 18.3007 42.8768 17.1814 43.1247C15.9013 43.4056 12.4938 47.0904 11.8479 48.2884C7.2714 56.7845 19.718 62.0722 25.3057 55.4626C26.5536 53.9892 27.0037 51.9375 28.6607 50.778C27.3456 54.6143 28.2048 60.3509 32.7521 61.9345C40.9466 64.7849 44.9561 55.5617 40.7011 49.4864C39.6432 47.9772 36.4051 46.2725 39.9179 45.0084C43.1939 46.8701 46.3677 48.3958 50.2808 47.33C57.3823 45.394 58.5279 36.3333 51.2423 33.7721C47.0135 32.2849 43.416 33.18 39.1843 33.9786V33.9759Z" fill="#0011FF"/>
<path d="M117.397 50.3319C121.249 52.7031 122.88 57.1288 122.155 61.3589C121.915 62.7525 120.834 63.7164 120.717 65.0989C133.225 67.3324 128.006 81.4466 117.21 80.7994C118.818 88.3454 114.133 94.6272 105.506 93.3439C102.613 92.9142 98.9393 90.6229 97.5687 88.1553C96.955 87.0482 97.0368 85.9191 96.3149 84.9387C92.6999 86.8527 88.3104 88.1443 84.2716 86.6379C78.342 84.4292 77.5851 77.4808 80.376 72.6669C80.8407 71.8654 81.6882 70.6151 82.7227 70.6041L82.7344 70.1938C82.0944 69.0288 80.9663 68.4863 80.2328 67.3131C74.6919 58.448 89.2514 49.167 98.0216 54.1297C98.6558 54.4877 98.9597 55.2423 99.6728 55.1845C100.965 52.6618 102.481 50.1805 105.322 49.0734C109.08 47.611 114.013 48.2499 117.4 50.3319H117.397ZM113.797 65.735C115.787 64.0661 117.961 64.9557 119.192 61.3176C122.079 52.7857 110.275 46.8454 103.992 52.425C102.364 53.8708 101.219 59.5413 100.073 59.8332C99.0503 60.0949 99.0854 58.85 98.6412 58.2276C95.184 53.3999 87.1064 55.6995 83.9063 59.7341C82.0243 62.1053 82.0739 63.7907 83.6579 66.2858C84.2687 67.247 87.3869 69.9156 87.3986 70.1772C87.4483 71.2293 85.8877 71.411 84.9701 72.0307C79.2158 75.9166 80.8085 84.5228 89.3128 83.8343C92.2849 83.5947 96.3675 80.2045 98.5974 80.849C100.018 81.2593 99.5296 83.278 99.702 84.2144C100.582 89.0228 110.164 91.6529 113.072 87.2217C115.349 83.7544 112.248 81.4466 112.847 77.9187C113.382 74.7709 116.863 77.3459 118.271 77.4753C120.527 77.6874 123.023 75.5833 123.993 73.8235C125.89 70.3838 122.745 68.2439 119.373 67.8777C117.821 67.7097 114.817 68.3789 113.899 68.0759C112.835 67.7262 113.116 66.2996 113.797 65.7295V65.735Z" fill="#0011FF"/>
<path d="M53.1185 104.943C52.911 105.178 51.6368 105.954 51.2832 106.103C45.8913 108.342 41.2651 101.735 45.3097 97.9979C50.0791 93.5915 56.2981 101.347 53.1185 104.943ZM50.8741 99.5236C46.4349 98.568 46.0316 102.952 50.2399 102.506C50.7951 101.548 51.0026 100.622 50.8741 99.5236Z" fill="#0011FF"/>
<path d="M31.4779 36.8125C34.7218 36.4986 37.4806 41.307 34.2045 43.4662C29.78 46.3799 23.0671 40.2109 28.8974 37.6387C29.1224 37.5396 31.3435 36.8235 31.4779 36.8125Z" fill="#0011FF"/>
<path d="M100.76 67.0732C101.876 66.7565 103.954 67.3789 104.422 68.475C106.371 73.0411 98.2729 74.2171 99.4536 68.8798C99.5676 68.3676 100.216 67.2302 100.76 67.076V67.0732ZM102.005 68.1363C101.394 67.6736 100.541 69.9153 100.982 70.3339C101.786 71.1354 102.905 70.736 102.923 69.6317C103.095 69.4389 102.084 68.1968 102.005 68.1363Z" fill="#0011FF"/>
</svg>
