<svg width="231" height="24" viewBox="0 0 231 24" fill="none" xmlns="http://www.w3.org/2000/svg">
<path d="M10.976 23.904C4.38399 23.904 -1.16825e-05 19.168 -1.16825e-05 12C-1.16825e-05 4.864 4.51199 0.0320015 11.136 0.0320015C16.352 0.0320015 20.352 3.136 21.216 7.872H17.856C16.992 4.864 14.4 3.04 11.04 3.04C6.36799 3.04 3.29599 6.56 3.29599 11.968C3.29599 17.376 6.36799 20.896 11.04 20.896C14.432 20.896 17.12 19.072 17.984 16.224H21.312C20.32 20.832 16.192 23.904 10.976 23.904ZM26.6932 23.552H23.5572V0.416H26.6932V10.368H38.1492V0.416H41.2852V23.552H38.1492V13.28H26.6932V23.552ZM48.187 0.416V20.64H58.363V23.552H45.051V0.416H48.187ZM79.9087 11.968C79.9087 19.008 75.3007 23.936 68.7407 23.936C62.2127 23.936 57.6687 19.008 57.6687 11.968C57.6687 4.96 62.2447 0 68.7727 0C75.3327 0 79.9087 4.928 79.9087 11.968ZM76.6127 11.968C76.6127 6.592 73.4767 3.04 68.7727 3.04C64.0687 3.04 60.9647 6.592 60.9647 11.968C60.9647 17.344 64.0687 20.928 68.7727 20.928C73.4767 20.928 76.6127 17.312 76.6127 11.968ZM96.4317 23.552H82.3197V0.416H96.4317V3.296H85.4557V10.528H95.3437V13.312H85.4557V20.64H96.4317V23.552ZM116.126 23.904C109.534 23.904 105.15 19.168 105.15 12C105.15 4.864 109.662 0.0320015 116.286 0.0320015C121.502 0.0320015 125.502 3.136 126.366 7.872H123.006C122.142 4.864 119.55 3.04 116.19 3.04C111.518 3.04 108.446 6.56 108.446 11.968C108.446 17.376 111.518 20.896 116.19 20.896C119.582 20.896 122.27 19.072 123.134 16.224H126.462C125.47 20.832 121.342 23.904 116.126 23.904ZM131.843 23.552H128.707V0.416H137.443C142.403 0.416 145.347 3.04 145.347 7.36C145.347 10.56 143.747 12.864 140.867 13.792L145.571 23.552H142.083L137.763 14.4H131.843V23.552ZM131.843 3.232V11.616H137.475C140.387 11.616 142.051 10.048 142.051 7.392C142.051 4.704 140.323 3.232 137.443 3.232H131.843ZM149.005 23.552H145.741L154.189 0.416H157.677L166.157 23.552H162.861L160.781 17.792H151.053L149.005 23.552ZM155.533 5.408L152.013 15.072H159.853L156.301 5.408C156.141 4.96 155.981 4.416 155.917 4.064C155.853 4.384 155.693 4.928 155.533 5.408ZM166.288 6.656C166.288 2.688 169.488 0 174.256 0C178.672 0 181.52 2.464 181.776 6.464H178.608C178.448 4.16 176.816 2.816 174.224 2.816C171.312 2.816 169.424 4.288 169.424 6.56C169.424 8.416 170.48 9.536 172.656 10.048L176.464 10.944C180.24 11.808 182.16 13.856 182.16 17.12C182.16 21.28 178.928 23.936 174 23.936C169.296 23.936 166.16 21.472 165.968 17.504H169.168C169.232 19.712 171.088 21.12 174 21.12C177.072 21.12 179.024 19.68 179.024 17.376C179.024 15.552 178.032 14.4 175.824 13.888L172.016 13.024C168.24 12.16 166.288 9.984 166.288 6.656ZM198.613 23.552H184.501V0.416H198.613V3.296H187.637V10.528H197.525V13.312H187.637V20.64H198.613V23.552ZM219.107 24C212.451 24 207.299 18.72 207.299 11.968C207.299 5.248 212.483 0 219.107 0C225.763 0 230.947 5.248 230.947 11.968C230.947 18.72 225.763 24 219.107 24ZM219.107 22.048C224.675 22.048 228.867 17.696 228.867 11.968C228.867 6.272 224.643 1.952 219.107 1.952C213.603 1.952 209.379 6.304 209.379 11.968C209.379 17.696 213.571 22.048 219.107 22.048ZM213.187 12.032C213.187 8.256 215.715 5.6 219.267 5.6C222.275 5.6 224.419 7.296 224.867 10.016H222.403C222.019 8.544 220.963 7.776 219.331 7.776C217.123 7.776 215.587 9.504 215.587 12C215.587 14.528 217.059 16.224 219.235 16.224C220.899 16.224 222.019 15.424 222.435 13.984H224.867C224.419 16.608 222.147 18.368 219.235 18.368C215.619 18.368 213.187 15.808 213.187 12.032Z" fill="black"/>
</svg>
